PathFileType	4	(X/Y/Z)	C:\Git\research_data\torsion_deformities_healthy_kinematics\simulations\P03\pre\Static01\marker_experimental_HJC.trc
DataRate	CameraRate	NumFrames	NumMarkers	Units	OrigDataRate	OrigDataStartFrame	OrigNumFrames
150	150	5	38	mm	150	19	150
Frame#	Time	C7			T10			CLAV			STRN			RBAK			SACR			LASI			RASI			LT1			LT2			LT3			LS1			LS2			LS3			LHEE			LTOE			RT1			RT2			RT3			RS1			RS2			RS3			RHEE			RTOE			LKNE			LKNM			LANK			LANM			RKNM			RKNE			RANM			RANK			LKJC			RKJC			LAJC			RAJC			LHJC			RHJC		
		X1	Y1	Z1	X2	Y2	Z2	X3	Y3	Z3	X4	Y4	Z4	X5	Y5	Z5	X6	Y6	Z6	X7	Y7	Z7	X8	Y8	Z8	X9	Y9	Z9	X10	Y10	Z10	X11	Y11	Z11	X12	Y12	Z12	X13	Y13	Z13	X14	Y14	Z14	X15	Y15	Z15	X16	Y16	Z16	X17	Y17	Z17	X18	Y18	Z18	X19	Y19	Z19	X20	Y20	Z20	X21	Y21	Z21	X22	Y22	Z22	X23	Y23	Z23	X24	Y24	Z24	X25	Y25	Z25	X26	Y26	Z26	X27	Y27	Z27	X28	Y28	Z28	X29	Y29	Z29	X30	Y30	Z30	X31	Y31	Z31	X32	Y32	Z32	X33	Y33	Z33	X34	Y34	Z34	X35	Y35	Z35	X36	Y36	Z36	X37	Y37	Z37	X38	Y38	Z38	

19	0.120000	-962.802307	1274.260376	-442.105560	-914.631226	1094.640137	-444.118530	-1094.557617	1213.448486	-426.246674	-1127.341675	1160.857544	-421.711975	-933.225708	1177.316284	-541.385681	-917.578308	875.282837	-429.257202	-1073.296143	871.131470	-277.224182	-1126.093018	879.244446	-519.972778	-1128.424683	586.142151	-242.196106	-1079.038330	474.473236	-230.694366	-1203.418579	531.554138	-275.016937	-1033.088135	217.101898	-282.212128	-950.456421	148.507401	-342.055298	-1062.053833	131.623703	-254.005356	-973.795288	41.793541	-367.807404	-1083.177490	41.307362	-262.096985	-1133.491943	608.343018	-591.736938	-1056.459717	510.609955	-585.700745	-1198.346191	534.859375	-582.299377	-1088.923828	266.988251	-587.054688	-981.351868	217.350891	-561.725159	-1116.617676	176.773773	-582.413086	-981.975891	44.987022	-500.110016	-1123.357300	41.800732	-570.669495	-1147.663208	432.598022	-267.165955	-1164.557373	421.612244	-366.395844	-994.165344	49.570068	-304.619904	-1044.949951	47.215923	-356.665192	-1165.133789	424.404510	-465.908569	-1164.913452	440.233917	-568.439514	-1062.910278	52.920715	-490.808746	-1019.098938	47.647686	-552.249634	-1156.110229	427.105133	-316.780884	-1165.023560	432.319214	-517.174072	-1019.557617	48.392998	-330.642548	-1041.004639	50.284199	-521.529175	-1028.156807	786.962975	-325.645670	-1066.103992	792.794089	-500.118606	
20	0.126667	-962.800232	1274.295288	-442.157257	-914.609985	1094.674805	-444.168884	-1094.533325	1213.455078	-426.311005	-1127.318481	1160.844971	-421.777313	-933.217041	1177.354736	-541.447144	-917.486694	875.314880	-429.301270	-1073.241577	871.132568	-277.295044	-1126.023193	879.255615	-520.038086	-1128.396729	586.158264	-242.249832	-1078.980469	474.504120	-230.770569	-1203.370605	531.567078	-275.084259	-1033.072388	217.111176	-282.215912	-950.432251	148.503113	-342.045074	-1062.046021	131.638397	-254.007141	-973.769653	41.795715	-367.789886	-1083.175537	41.313931	-262.088989	-1133.447510	608.357727	-591.774414	-1056.401733	510.629700	-585.755127	-1198.287964	534.869934	-582.297119	-1088.883789	266.987793	-587.071289	-981.320740	217.335190	-561.754395	-1116.603027	176.783005	-582.412781	-981.966431	44.980270	-500.119263	-1123.356445	41.796650	-570.667603	-1147.641602	432.625732	-267.221405	-1164.509766	421.626068	-366.459229	-994.156189	49.567616	-304.613678	-1044.934448	47.220097	-356.661560	-1165.030884	424.432343	-465.916687	-1164.853271	440.253815	-568.446655	-1062.889771	52.923424	-490.810699	-1019.097168	47.645744	-552.258728	-1156.075684	427.125916	-316.840332	-1164.942017	432.343079	-517.181702	-1019.545288	48.393856	-330.637634	-1040.993408	50.284584	-521.534729	-1028.081933	786.976023	-325.719658	-1066.018254	792.814391	-500.189081	
21	0.133333	-962.802856	1274.329590	-442.208191	-914.586304	1094.713135	-444.222687	-1094.516602	1213.454590	-426.373077	-1127.292358	1160.818604	-421.842407	-933.211731	1177.398193	-541.510315	-917.395752	875.341309	-429.349365	-1073.184204	871.130981	-277.365540	-1125.954468	879.270813	-520.103760	-1128.378174	586.173706	-242.312851	-1078.924927	474.526001	-230.861496	-1203.331543	531.580017	-275.174408	-1033.063110	217.117661	-282.220734	-950.410156	148.497604	-342.030609	-1062.048950	131.651276	-254.014511	-973.751648	41.795803	-367.777863	-1083.177368	41.317345	-262.088501	-1133.402954	608.371887	-591.805359	-1056.330933	510.652863	-585.793884	-1198.230591	534.881226	-582.288025	-1088.846924	266.987946	-587.083740	-981.290710	217.320099	-561.781738	-1116.591797	176.793320	-582.406982	-981.955872	44.973133	-500.128967	-1123.355957	41.794014	-570.663086	-1147.650269	432.656616	-267.272308	-1164.451904	421.635345	-366.533844	-994.149719	49.565704	-304.609680	-1044.917358	47.223648	-356.661377	-1164.920288	424.468750	-465.911682	-1164.796021	440.277069	-568.445190	-1062.868896	52.923252	-490.809143	-1019.095886	47.643150	-552.267517	-1156.051025	427.145996	-316.903076	-1164.858154	432.372894	-517.178406	-1019.533508	48.394676	-330.635529	-1040.982422	50.283199	-521.538330	-1028.008477	786.985081	-325.795873	-1065.936721	792.835526	-500.262206	
22	0.140000	-962.810974	1274.360840	-442.259766	-914.562378	1094.753540	-444.278992	-1094.508423	1213.448975	-426.431702	-1127.265869	1160.781860	-421.905914	-933.209473	1177.444580	-541.573120	-917.312317	875.361816	-429.403687	-1073.126953	871.125183	-277.433411	-1125.887451	879.288757	-520.168823	-1128.365479	586.187195	-242.383881	-1078.879517	474.536652	-230.955154	-1203.301636	531.593201	-275.283875	-1033.058960	217.121628	-282.227692	-950.391846	148.490570	-342.014008	-1062.061157	131.662125	-254.027115	-973.742249	41.792675	-367.771606	-1083.182739	41.317581	-262.095001	-1133.357910	608.384155	-591.830933	-1056.250244	510.676300	-585.819153	-1198.174561	534.891296	-582.274780	-1088.811035	266.987976	-587.092773	-981.261108	217.305252	-561.806946	-1116.583862	176.803162	-582.396606	-981.944275	44.965946	-500.138794	-1123.354980	41.792179	-570.655579	-1147.649780	432.672546	-267.328247	-1164.384277	421.639557	-366.614075	-994.144043	49.563419	-304.608734	-1044.898926	47.226128	-356.664093	-1164.802612	424.509521	-465.895355	-1164.740967	440.300415	-568.435974	-1062.849487	52.920578	-490.803986	-1019.094421	47.639519	-552.275146	-1156.017090	427.156067	-316.971161	-1164.771851	432.404968	-517.165649	-1019.521484	48.394772	-330.636414	-1040.972046	50.280048	-521.539551	-1027.939533	786.988692	-325.871658	-1065.860809	792.856210	-500.336206	
23	0.146667	-962.826416	1274.387573	-442.312988	-914.541443	1094.793701	-444.336823	-1094.507935	1213.440430	-426.487335	-1127.244873	1160.739624	-421.965576	-933.211609	1177.491211	-541.634277	-917.240540	875.377441	-429.465485	-1073.070679	871.114746	-277.496613	-1125.821533	879.307861	-520.231812	-1128.355591	586.197388	-242.462357	-1078.855591	474.539062	-231.039963	-1203.279297	531.605957	-275.408386	-1033.057983	217.123825	-282.238495	-950.378540	148.482086	-341.997681	-1062.079956	131.671097	-254.044434	-973.739746	41.785862	-367.769348	-1083.190796	41.313812	-262.107147	-1133.313110	608.393921	-591.852295	-1056.166504	510.697083	-585.834961	-1198.117310	534.897888	-582.259644	-1088.774780	266.987213	-587.099304	-981.231384	217.290390	-561.830750	-1116.577881	176.811508	-582.382812	-981.931763	44.959114	-500.148376	-1123.353271	41.790501	-570.644958	-1147.615112	432.662598	-267.401794	-1164.313599	421.639618	-366.699951	-994.137451	49.560883	-304.610291	-1044.879883	47.227180	-356.669037	-1164.680664	424.549011	-465.870941	-1164.687866	440.320160	-568.420349	-1062.832764	52.916420	-490.795929	-1019.092285	47.634644	-552.280945	-1155.964355	427.151123	-317.050873	-1164.684326	432.434601	-517.145630	-1019.508728	48.394032	-330.639648	-1040.962524	50.275532	-521.538452	-1027.875553	786.986729	-325.944327	-1065.789913	792.875481	-500.408795	
